HIERARCHY
ROOT hips
{
  OFFSET 0 10.074487846421558 1.314567655973056
  CHANNELS 6 Xposition Yposition Zposition Yrotation Xrotation Zrotation
  JOINT spine
  {
    OFFSET -7.042773748992335e-31 0.5690686926897363 0
    CHANNELS 3 Yrotation Xrotation Zrotation
    JOINT chest
    {
      OFFSET 0 1.2435964857087873 0
      CHANNELS 3 Yrotation Xrotation Zrotation
      JOINT upperChest
      {
        OFFSET 0 1.194994586872362 0
        CHANNELS 3 Yrotation Xrotation Zrotation
        JOINT neck
        {
          OFFSET 0 1.515103653293861 0
          CHANNELS 3 Yrotation Xrotation Zrotation
          JOINT head
          {
            OFFSET 0 0.8111851616465653 0
            CHANNELS 3 Yrotation Xrotation Zrotation
            JOINT leftEye
            {
              OFFSET 0.27141371691966987 0.7490044407698551 0.18219031050045686
              CHANNELS 3 Yrotation Xrotation Zrotation
              End Site
              {
                OFFSET 0.27141371691966987 0.7490044407698551 0.18219031050045686
              }
            }
            JOINT rightEye
            {
              OFFSET -0.2714136877644943 0.7490044019380786 0.18219040411850668
              CHANNELS 3 Yrotation Xrotation Zrotation
              End Site
              {
                OFFSET -0.2714136877644943 0.7490044019380786 0.18219040411850668
              }
            }
          }
        }
        JOINT leftShoulder
        {
          OFFSET 0.4137993136083964 1.1593397335613034 0
          CHANNELS 3 Yrotation Xrotation Zrotation
          JOINT leftUpperArm
          {
            OFFSET 1.0096991868951026 0 0
            CHANNELS 3 Yrotation Xrotation Zrotation
            JOINT leftLowerArm
            {
              OFFSET 2.418380967671622 0 0
              CHANNELS 3 Yrotation Xrotation Zrotation
              JOINT leftHand
              {
                OFFSET 2.361538296260114 0 0
                CHANNELS 3 Yrotation Xrotation Zrotation
                JOINT leftIndexProximal
                {
                  OFFSET 0.7243699271447109 0.08118285989887508 0.2022042461579805
                  CHANNELS 3 Yrotation Xrotation Zrotation
                  JOINT leftIndexIntermediate
                  {
                    OFFSET 0.36553107045252053 -0.010567764853200323 -0.014102670024158437
                    CHANNELS 3 Yrotation Xrotation Zrotation
                    JOINT leftIndexDistal
                    {
                      OFFSET 0.22505120770060527 -0.007821041598631284 -0.007511611613336286
                      CHANNELS 3 Yrotation Xrotation Zrotation
                      End Site
                      {
                        OFFSET 0.22505120770060527 -0.007821041598631284 -0.007511611613336286
                      }
                    }
                  }
                }
                JOINT leftLittleProximal
                {
                  OFFSET 0.6721063881632002 0.08118279568569564 -0.3209324945517917
                  CHANNELS 3 Yrotation Xrotation Zrotation
                  JOINT leftLittleIntermediate
                  {
                    OFFSET 0.34587329423120616 5.3042709780015684e-8 -5.929537746918179e-8
                    CHANNELS 3 Yrotation Xrotation Zrotation
                    JOINT leftLittleDistal
                    {
                      OFFSET 0.1992782500022232 0.0030983716482184676 0.0038310952896712935
                      CHANNELS 3 Yrotation Xrotation Zrotation
                      End Site
                      {
                        OFFSET 0.1992782500022232 0.0030983716482184676 0.0038310952896712935
                      }
                    }
                  }
                }
                JOINT leftMiddleProximal
                {
                  OFFSET 0.7301229696860206 0.08118412848995638 0.022516891543707507
                  CHANNELS 3 Yrotation Xrotation Zrotation
                  JOINT leftMiddleIntermediate
                  {
                    OFFSET 0.4076277831942017 -0.000001240188283180288 -1.6203245635504349e-7
                    CHANNELS 3 Yrotation Xrotation Zrotation
                    JOINT leftMiddleDistal
                    {
                      OFFSET 0.2514739255593972 0.0000013850839168938478 -1.8644847207816007e-8
                      CHANNELS 3 Yrotation Xrotation Zrotation
                      End Site
                      {
                        OFFSET 0.2514739255593972 0.0000013850839168938478 -1.8644847207816007e-8
                      }
                    }
                  }
                }
                JOINT leftRingProximal
                {
                  OFFSET 0.7218060861525873 0.08118280646416753 -0.1494689818508163
                  CHANNELS 3 Yrotation Xrotation Zrotation
                  JOINT leftRingIntermediate
                  {
                    OFFSET 0.3781267508900358 0.000001373626195677602 -1.4143108284514483e-7
                    CHANNELS 3 Yrotation Xrotation Zrotation
                    JOINT leftRingDistal
                    {
                      OFFSET 0.21814333268795483 -0.0027137626495670197 -0.004991775417842292
                      CHANNELS 3 Yrotation Xrotation Zrotation
                      End Site
                      {
                        OFFSET 0.21814333268795483 -0.0027137626495670197 -0.004991775417842292
                      }
                    }
                  }
                }
                JOINT leftThumbProximal
                {
                  OFFSET 0.10743676110519984 -0.16423092885053192 -0.07708859146227388
                  CHANNELS 3 Yrotation Xrotation Zrotation
                  JOINT leftThumbIntermediate
                  {
                    OFFSET 0.40350402100066307 -0.01735099334274981 0.315629965828783
                    CHANNELS 3 Yrotation Xrotation Zrotation
                    JOINT leftThumbDistal
                    {
                      OFFSET 0.2320014489535681 -0.01842351809041043 0.21271298411519196
                      CHANNELS 3 Yrotation Xrotation Zrotation
                      End Site
                      {
                        OFFSET 0.2320014489535681 -0.01842351809041043 0.21271298411519196
                      }
                    }
                  }
                }
              }
            }
          }
        }
        JOINT rightShoulder
        {
          OFFSET -0.41379931360839656 1.1593397335613034 0
          CHANNELS 3 Yrotation Xrotation Zrotation
          JOINT rightUpperArm
          {
            OFFSET -1.0096991868951024 0 0
            CHANNELS 3 Yrotation Xrotation Zrotation
            JOINT rightLowerArm
            {
              OFFSET -2.4183809676716232 0 0
              CHANNELS 3 Yrotation Xrotation Zrotation
              JOINT rightHand
              {
                OFFSET -2.3615382962601132 0 0
                CHANNELS 3 Yrotation Xrotation Zrotation
                JOINT rightIndexProximal
                {
                  OFFSET -0.7243699271447109 0.08118285989887508 0.2022042461579805
                  CHANNELS 3 Yrotation Xrotation Zrotation
                  JOINT rightIndexIntermediate
                  {
                    OFFSET -0.36553107045252053 -0.010567764853200323 -0.014102670024158437
                    CHANNELS 3 Yrotation Xrotation Zrotation
                    JOINT rightIndexDistal
                    {
                      OFFSET -0.22505120770060527 -0.007821041598631284 -0.007511611613336286
                      CHANNELS 3 Yrotation Xrotation Zrotation
                      End Site
                      {
                        OFFSET -0.22505120770060527 -0.007821041598631284 -0.007511611613336286
                      }
                    }
                  }
                }
                JOINT rightLittleProximal
                {
                  OFFSET -0.6721063881632002 0.08118279568569564 -0.3209324945517917
                  CHANNELS 3 Yrotation Xrotation Zrotation
                  JOINT rightLittleIntermediate
                  {
                    OFFSET -0.34587329423120616 5.3042709780015684e-8 -5.929537746918179e-8
                    CHANNELS 3 Yrotation Xrotation Zrotation
                    JOINT rightLittleDistal
                    {
                      OFFSET -0.1992782500022232 0.0030983716482184676 0.0038310952896712935
                      CHANNELS 3 Yrotation Xrotation Zrotation
                      End Site
                      {
                        OFFSET -0.1992782500022232 0.0030983716482184676 0.0038310952896712935
                      }
                    }
                  }
                }
                JOINT rightMiddleProximal
                {
                  OFFSET -0.7301229696860206 0.08118412848995638 0.022516891543707507
                  CHANNELS 3 Yrotation Xrotation Zrotation
                  JOINT rightMiddleIntermediate
                  {
                    OFFSET -0.4076277831942017 -0.000001240188283180288 -1.6203245635504349e-7
                    CHANNELS 3 Yrotation Xrotation Zrotation
                    JOINT rightMiddleDistal
                    {
                      OFFSET -0.2514739255593972 0.0000013850839168938478 -1.8644847207816007e-8
                      CHANNELS 3 Yrotation Xrotation Zrotation
                      End Site
                      {
                        OFFSET -0.2514739255593972 0.0000013850839168938478 -1.8644847207816007e-8
                      }
                    }
                  }
                }
                JOINT rightRingProximal
                {
                  OFFSET -0.7218060861525873 0.08118280646416753 -0.1494689818508163
                  CHANNELS 3 Yrotation Xrotation Zrotation
                  JOINT rightRingIntermediate
                  {
                    OFFSET -0.3781267508900358 0.000001373626195677602 -1.4143108284514483e-7
                    CHANNELS 3 Yrotation Xrotation Zrotation
                    JOINT rightRingDistal
                    {
                      OFFSET -0.21814333268795483 -0.0027137626495670197 -0.004991775417842292
                      CHANNELS 3 Yrotation Xrotation Zrotation
                      End Site
                      {
                        OFFSET -0.21814333268795483 -0.0027137626495670197 -0.004991775417842292
                      }
                    }
                  }
                }
                JOINT rightThumbProximal
                {
                  OFFSET -0.10743676110519984 -0.16423092885053192 -0.07708859146227388
                  CHANNELS 3 Yrotation Xrotation Zrotation
                  JOINT rightThumbIntermediate
                  {
                    OFFSET -0.40350402100066307 -0.01735099334274981 0.315629965828783
                    CHANNELS 3 Yrotation Xrotation Zrotation
                    JOINT rightThumbDistal
                    {
                      OFFSET -0.2320014489535681 -0.01842351809041043 0.21271298411519196
                      CHANNELS 3 Yrotation Xrotation Zrotation
                      End Site
                      {
                        OFFSET -0.2320014489535681 -0.01842351809041043 0.21271298411519196
                      }
                    }
                  }
                }
              }
            }
          }
        }
      }
    }
  }
  JOINT leftUpperLeg
  {
    OFFSET 0.8487163290887698 -0.43932186100277326 0
    CHANNELS 3 Yrotation Xrotation Zrotation
    JOINT leftLowerLeg
    {
      OFFSET 0 -3.882816707004296 0
      CHANNELS 3 Yrotation Xrotation Zrotation
      JOINT leftFoot
      {
        OFFSET 0 -4.570431027442807 0.004629272230691511
        CHANNELS 3 Yrotation Xrotation Zrotation
        JOINT leftToes
        {
          OFFSET 0 -0.698875637876343 1.214565366696912
          CHANNELS 3 Yrotation Xrotation Zrotation
          End Site
          {
            OFFSET 0 -0.698875637876343 1.214565366696912
          }
        }
      }
    }
  }
  JOINT rightUpperLeg
  {
    OFFSET -0.8487163290887698 -0.43932186100277326 0
    CHANNELS 3 Yrotation Xrotation Zrotation
    JOINT rightLowerLeg
    {
      OFFSET 0 -3.882816707004296 0
      CHANNELS 3 Yrotation Xrotation Zrotation
      JOINT rightFoot
      {
        OFFSET 0 -4.570431027442807 0.004629272230691511
        CHANNELS 3 Yrotation Xrotation Zrotation
        JOINT rightToes
        {
          OFFSET 0 -0.698875637876343 1.214565366696912
          CHANNELS 3 Yrotation Xrotation Zrotation
          End Site
          {
            OFFSET 0 -0.698875637876343 1.214565366696912
          }
        }
      }
    }
  }
}
MOTION
Frames: 4
Frame Time: 0.03333333333333333
0.4996001720428467 -4.785627525376636 1.8677077293395996 2.9433843952407517 0.8927257299279853 0.45510554157792166 -0.5735909038022533 -0.21864569157653388 -0.23051168738500058 -0.8495131872191222 -1.099725097289702 -0.5026522986996816 0 0 0 -0.5088620413415302 2.8669115302292556 3.952983116375129 2.7718129106965352 -9.440502997066236 -4.308993962993124 0 0 0 0 0 0 -5.631540190525332 1.7655266231759665 4.213173320920731 -46.019362617127086 -24.489206406848176 -44.627008827702106 -104.53113410362641 -6.345961210300259 10.088429684744229 -19.41096705395415 2.2065767768300466 33.293730280622206 -0.7379237700577449 0.04433857095878724 6.87454989039576 0.00001631570283694543 -0.000007999877694776784 -0.00017679375518831202 0.000008934728310746401 0.000007615866987867609 -0.00003706972001679894 3.2915343601934977 -0.45750998230731943 7.318021225854168 -4.060514108602151 -0.016211644309377715 -0.4574889625063054 0.000005895145583429382 0.00000563647010429736 -0.000028318165600603684 -0.7396313240631696 0.04453492895132045 6.890554547114764 0.0017202981387575622 -0.0000011402253928611772 -0.016065587637612195 0.000005990139642656087 0.00001641348601362851 -0.000031461293753685374 -0.7379237167013031 0.04433856095362432 6.87454989039576 3.371373967910729e-7 -0.000011337322370456584 -0.00005651495349944001 0.000009050620598896442 0.0000067770689197225855 -0.00002975652132975341 -3.107316615966781 -4.366342000057263 7.177067835621522 10.30435038302106 -11.584972820954567 27.199140270550267 1.6077410305030992 -0.5796767848695111 2.5018861791549343 10.090221383450173 4.468611156893578 2.2091964760565466 34.79351160103233 -28.05637948352799 54.2770430196707 111.8549094671331 -5.960368647392452 -10.967956096808063 7.673284466151488 20.56723261621848 -22.00341822287743 1.5134934477014412 0.18655776875475588 -14.052441438741836 -0.000016419625247496183 -0.000003736707389063978 0.0001914451784896012 -0.000013281297747316733 0.000020116127982721326 0.000023139570387361363 1.5134970749927956 0.18655107193222004 -14.052443923425557 -0.00000446381740434796 0.000007299799035619482 0.00005969626215047083 -0.000004374442291132589 -0.0000021245588241207277 0.000034994805529257816 1.5134934477014412 0.18655780877560768 -14.052441438741836 -0.000004033032900515562 3.2460112601411595e-7 0.00006021820450658365 -5.623889356643728e-7 0.0000036117690945111024 0.000033935346378644984 1.5134934477014412 0.186557742074188 -14.052441438741836 -0.0000040330451138455394 3.2460112601411595e-7 0.00006021820450658365 -5.631115576880014e-7 0.0000036117690945111024 0.000033935356149308964 8.215240446762941 -31.460823062299877 -26.78064908256019 -8.66435652350634 4.59289834704193 -0.8120885090615254 0.11026937852899633 -1.2742431043752094 -2.0989238313952483 -5.452390453088881 -12.12475679038118 10.80072422436528 162.7410701106001 60.330704300355 160.64867039766955 1.3577744349286722 -15.503857812224155 -8.221728541062406 0.4994480162069788 -22.61654124740168 -6.637659076202292 0.32178041633401966 -7.730109641950878 -12.152045458467885 -161.74133375236232 61.80040921473267 -158.69322729007294 -0.5570517336390126 -17.065594545403393 3.2715199295011534 0.000006266506778594117 2.4410439666489907 -8.088918312018004e-7
0.5013055205345154 -4.786204021500904 1.86733877658844 3.090251388053792 0.8535490314878508 0.462519963329717 -0.6212160549060978 -0.24763509566565295 -0.22359474873678503 -0.9148843041404501 -1.1783545171998226 -0.4973894904362133 0 0 0 -0.48870453434887945 3.200942938113033 3.97049818478174 2.751569548348776 -10.046897336377029 -4.087658235422209 0 0 0 0 0 0 -5.632505377353261 1.7657132613281852 4.213713688761579 -46.25213702217322 -24.47548920070546 -44.6733312156898 -104.64440911415689 -6.340814743515266 10.102372910544954 -19.682194631746356 2.693617039593362 33.30208143681684 -0.7379229163546743 0.044323142997577294 6.874574032970813 0.000021958554406155037 -0.000008137284985013996 -0.00020300864206354945 -0.00000830019940779671 0.000012868424499006685 -0.000010628358920851953 3.291531376820259 -0.45751601227593636 7.318047066256979 -4.060513015148661 -0.016217987581019114 -0.4575162029437634 -0.0000011860345402717344 2.442445646535649e-7 -0.00002033020323055376 -0.7396309505682074 0.044535345833109585 6.890582504069597 0.0017312785933156878 -0.0000030288775400368914 -0.01609292840408845 -0.0000030908320990103014 0.000002932511109631788 -0.000019621247108947397 -0.7379229163546743 0.04432313966252299 6.874574032970813 0.000007015227632937525 -0.0000042821766898227145 -0.00008846196975781072 -3.383640222317449e-7 0.0000025157981939321816 -0.000020973658449272442 -3.1073176847166315 -4.366342856316074 7.177065711746908 10.30436067268468 -11.584972820954567 27.199132475840013 1.6077410305030992 -0.5796767848695111 2.5018861791549343 9.939179863419081 4.406472501835702 2.4083985530310206 34.839921061849424 -27.82674474299858 54.12655368674567 112.19227457237146 -5.939904003160936 -11.007240433064645 7.916107417970989 20.803296266433474 -21.74080065362123 1.5135079568667864 0.18654360137321896 -14.0524497220164 -0.00002713344490930448 0.000006082965021589944 0.000201756785511605 -0.0000016920586527598337 0.0000028393366330161274 0.000027378012770980255 1.513509557142364 0.18654397490116895 -14.052447236337102 -0.000009034691159718678 0.0000074828312555401005 0.00004964078982774063 -0.0000025428401349448557 0.000003999079843180013 0.00003748137111788948 1.5135079568667864 0.18654362805378683 -14.0524497220164 -0.000012089023518537651 0.000008399171348596956 0.00005320378295343143 0.000002039886453612929 0.0000026245739782602323 0.00003205716746725826 1.5135079568667864 0.18654357469265112 -14.0524497220164 -0.000012089035731867628 0.000008399171348596956 0.00005320378295343143 0.000002041026160855266 0.0000026245739782602323 0.000032057151182818294 8.316770844521974 -31.462092225058257 -26.825271806991967 -8.66435652350634 4.59289834704193 -0.8120885090615254 0.11026937852899633 -1.2742431043752094 -2.0989238313952483 -5.5554482636039015 -12.134301624057759 10.75100095305655 162.4440662618747 60.23186995775498 160.38981641474632 1.3543050352478705 -15.492531326119813 -8.220544246024073 0.4988162423758809 -22.61879247022734 -6.6234214146060175 0.20395962350248942 -7.645120136402733 -12.194205437031357 -161.92857198322625 61.857266319150796 -158.85696774726208 -0.5445601647907701 -17.075190228912632 3.1929596704026793 0.000003709416214665288 2.4821857973705543 0.000005880217504994203
0.504029393196106 -4.7872239761823 1.86821448802948 3.337828404490752 0.7472990579861643 0.4509325165337868 -0.7079249748399463 -0.2706051234986619 -0.17685264580461743 -1.0294089794008217 -1.277206113198326 -0.45007400197691005 0 0 0 -0.42010544721322834 3.8571813222224187 4.0421064889661675 2.8899601830321227 -11.618147779628744 -3.734928228894592 0 0 0 0 0 0 -5.64010820679827 1.7672768370651935 4.218169329942511 -46.6525612823028 -24.37929307332346 -44.77340059267083 -105.37277186899655 -6.307381139044838 10.191885870261958 -20.003077458363315 4.089116687181266 32.995445174755375 -0.7379232898497677 0.04433251116511663 6.8745871713246025 0.000020302537595490273 0.000007789228693112581 -0.00017445198758301854 0.0000058184247014029935 0.00000641923422873073 -0.00004062660973439056 3.291533294703057 -0.45749728201945256 7.318047478084612 -4.060518366755023 -0.016214954349916117 -0.4574794645771529 0.000010427982143920262 -0.000003947735003957462 -0.00003645287194454593 -0.7396294565883582 0.04453330477986997 6.890589708730513 0.0017213760905172319 0.000010913060599053797 -0.016053706510436007 0.0000041699825979896404 0.00000828409572511136 -0.000045285913698344894 -0.7379232898497677 0.044332507830062325 6.8745871713246025 0.000006101982804807816 0.000008809705337105794 -0.00005821198104372146 0.000006744313582946706 -0.000012483440796809351 -0.00004204219330268714 -3.1073198222163274 -4.36632829991642 7.177089074366576 10.30435724279688 -11.584965848726936 27.19911374265625 1.6077410305030992 -0.5796767848695111 2.5018861791549343 9.735523541514716 4.3130426305775025 2.824764576459477 34.95766254627167 -27.334656674430306 53.8871381822201 113.2672249129906 -5.873240044005683 -11.131587741782633 8.530080435257206 21.50709067307524 -21.27030067640054 1.5135045429455463 0.18655048495972698 -14.052443923425557 -0.00002763432659920573 0.0000023883492458470714 0.00020307047082522334 -0.0000027296281573888437 0.0000019850182722475664 0.000017001149112568442 1.513505503110896 0.18655067172370204 -14.052441438741836 -0.000014075066489170169 6.114156339684484e-7 0.00004592153121610613 -0.000002217812890936736 0.000003456085777296579 0.00003697446255675577 1.5135045429455463 0.18655049830001091 -14.052443923425557 -0.00001621785126561515 8.207074802278513e-7 0.00004794831215598607 9.99129880526467e-7 0.00000957157204683783 0.00003627955339306695 1.5135045429455463 0.18655047161944308 -14.052444751653452 -0.00001622158854458806 8.207074802278513e-7 0.000047948361009305975 9.993384231358214e-7 0.00000957157204683783 0.00003627955013617896 8.52491112622443 -31.46393394293509 -26.915711347890724 -8.66435652350634 4.59289834704193 -0.8120885090615254 0.11026937852899633 -1.2742431043752094 -2.0989238313952483 -5.747505079733963 -12.076039790867311 10.69233870982776 162.03375025710454 60.113019256113 160.0303039079259 1.3420935591822876 -15.493736241941606 -8.167985454103231 0.5105314656248883 -22.705125199817648 -6.691914458081298 -0.008148155591596458 -7.452331156136303 -12.25769430708948 -162.26801444165193 61.97241741666368 -159.15529676401832 -0.5021179485523163 -17.125459534429158 2.9311673762743227 0.00001686574552598244 2.5727136869196543 4.4881893034979623e-7
0.5054833292961121 -4.788041751908619 1.8692622184753418 3.466138260102211 0.616548582537806 0.40526458058867065 -0.7584912488098469 -0.2804248345923923 -0.11325674746846982 -1.0911198559310484 -1.3374257462684296 -0.38267648414719535 0 0 0 -0.364807816637888 4.368602098591818 4.1622182547903686 3.0656760400428844 -13.071117514211217 -3.5287572513840386 0 0 0 0 0 0 -5.655004103987284 1.7703231655779434 4.226886855677458 -46.73154185845594 -24.167004338387763 -44.87004662264517 -106.03358906885872 -6.276041589641449 10.272735000125225 -19.23357327026971 4.870752591574075 32.963201414879805 -0.7379169937896131 0.044337016823481464 6.874550314213653 0.000014207375935475046 -0.0000037935303138921323 -0.0001658769271841691 0.0000035863877592642678 0.000005584560195007882 -0.00004570544646838038 3.29154075313609 -0.45749888289607327 7.3180131692218096 -4.060513682786861 -0.01620653000492881 -0.4574686326691564 0.000006067725228444835 -0.000007276888457026965 -0.00003529189559516584 -0.7396297233704743 0.04455126071229367 6.890560480365288 0.0017220687394000277 -0.0000024372373737447847 -0.01605480541047945 0.00000927728127616025 -0.000005346331458701023 -0.000035625811293619963 -0.7379169937896131 0.04433701015337285 6.874550314213653 -7.265491689936825e-7 0.000005882765337942909 -0.00004674575837447726 0.000006024707844711479 -0.000006436493292431973 -0.00003726473269920474 -3.107323028465855 -4.366327443657625 7.177081428418585 10.304376730765696 -11.584967591783826 27.199081013499942 1.6077410305030992 -0.5796767848695111 2.5018861791549343 9.632481241864186 4.25828899747313 3.145442985284992 35.24792290442184 -26.99390334204439 53.543922509312516 113.80470372342323 -5.839020222220421 -11.193293492560732 8.390348013362372 21.140083675752273 -21.33131759184641 1.513498355213271 0.18654995134836969 -14.052430670783886 -0.00001853648193862233 -0.000003017284850778394 0.00017639984109923937 -0.000005543342649002084 0.0000035945446352447932 0.00003278741712256806 1.513494514551841 0.18654989798723395 -14.052431499011828 -0.000005569157150352089 -0.00000801938563963776 0.00006180418519782776 -0.00000599652965689996 0.000003975611929629554 0.00002940539623513991 1.513498355213271 0.18654997802893755 -14.052430670783886 -0.0000070924305343869976 -0.000007435901942215169 0.00006391312439423859 -0.00000664541044390542 0.000003761668992870603 0.000027661928724953335 1.513498355213271 0.18654992466780182 -14.052430670783886 -0.000007090580622006509 -0.000007435901942215169 0.00006391310485291062 -0.000006644270533107582 0.000003761668992870603 0.00002766191569740136 8.73934032787925 -31.46494690320904 -27.00761790231044 -8.66435652350634 4.59289834704193 -0.8120885090615254 0.11026937852899633 -1.2742431043752094 -2.0989238313952483 -5.801759445424376 -11.955235032019383 10.7388867823143 161.84821163857643 60.08937590650116 159.8698665586474 1.3092200926523963 -15.523265964141103 -7.966379928798435 0.5476584711879348 -22.949065265898373 -6.934868315765163 -0.06871055455678182 -7.266595916059647 -12.180850505079672 -162.2430977070003 62.01745990675492 -159.13545207718593 -0.4582672355120633 -17.192672062897536 2.702412022614009 -0.000006192776551072368 2.6932082707736797 0.000011825421416048302
